<?xml version="1.0" encoding="UTF-8"?>
<svg width="700pt" height="700pt" version="1.1" viewBox="0 0 700 700" xmlns="http://www.w3.org/2000/svg">
 <g>
  <path d="m472.1 289c0 32.336-12.844 63.348-35.707 86.211-22.867 22.867-53.879 35.711-86.215 35.711-32.336 0-63.348-12.844-86.211-35.711-22.867-22.863-35.711-53.875-35.711-86.211s12.844-63.348 35.711-86.215c22.863-22.863 53.875-35.711 86.211-35.711 32.336 0 63.348 12.848 86.215 35.711 22.863 22.867 35.707 53.879 35.707 86.215z" fill-rule="evenodd"/>
  <path d="m349.12 24.156c-3.3359 0-6.5352 1.3242-8.8945 3.6797-2.3555 2.3594-3.6797 5.5586-3.6797 8.8945v76.262c0.019531 6.9297 5.6445 12.535 12.574 12.531 6.9297 0.003906 12.555-5.6016 12.574-12.531v-76.262c0.003907-3.3359-1.3203-6.5352-3.6797-8.8945-2.3594-2.3555-5.5586-3.6797-8.8945-3.6797z"/>
  <path d="m349.12 447.75c-3.3359 0-6.5352 1.3242-8.8945 3.6836-2.3594 2.3555-3.6797 5.5547-3.6797 8.8906v76.262c0 3.3359 1.3203 6.5352 3.6797 8.8945 2.3594 2.3594 5.5586 3.6836 8.8945 3.6797 3.3359 0.003906 6.5352-1.3203 8.8945-3.6797 2.3594-2.3594 3.6836-5.5586 3.6797-8.8945v-76.262c0.003907-3.3359-1.3203-6.5352-3.6797-8.8906-2.3594-2.3594-5.5586-3.6836-8.8945-3.6836z"/>
  <path d="m526.19 275.89c-6.9297 0.019531-12.535 5.6445-12.531 12.574-0.003906 6.9297 5.6016 12.555 12.531 12.574h76.262c3.3359 0.003907 6.5352-1.3203 8.8945-3.6797 2.3555-2.3594 3.6797-5.5586 3.6797-8.8945 0-3.3359-1.3242-6.5352-3.6797-8.8945-2.3594-2.3555-5.5586-3.6797-8.8945-3.6797z"/>
  <path d="m101 275.89c-6.9297 0.019531-12.535 5.6445-12.531 12.574-0.003906 6.9297 5.6016 12.555 12.531 12.574h76.262c3.3359 0.003907 6.5352-1.3203 8.8945-3.6797 2.3555-2.3594 3.6797-5.5586 3.6797-8.8945 0-3.3359-1.3242-6.5352-3.6797-8.8945-2.3594-2.3555-5.5586-3.6797-8.8945-3.6797z"/>
  <path d="m166.59 104.9c-4.8867 4.9023-4.8867 12.836 0 17.738l52.75 52.75c4.9023 4.8867 12.836 4.8867 17.742 0 2.3594-2.3555 3.6875-5.5547 3.6875-8.8906 0-3.3359-1.3281-6.5352-3.6875-8.8945l-52.707-52.703c-2.3594-2.3633-5.5586-3.6875-8.8945-3.6875-3.3359 0-6.5352 1.3242-8.8906 3.6875z"/>
  <path d="m473.7 399.43c-3.3281 0.011718-6.5195 1.3438-8.8711 3.7031-2.3594 2.3555-3.6875 5.5547-3.6875 8.8906 0 3.3359 1.3281 6.5352 3.6875 8.8945l52.75 52.707c2.3594 2.3594 5.5586 3.6875 8.8945 3.6875s6.5352-1.3281 8.8906-3.6875c4.8867-4.9062 4.8867-12.84 0-17.742l-52.75-52.75c-2.3594-2.3711-5.5664-3.7031-8.9141-3.7031z"/>
  <path d="m516.2 101.97-52.75 52.75c-4.8906 4.9023-4.8906 12.836 0 17.742 4.9023 4.8867 12.836 4.8867 17.738 0l52.75-52.707c2.3633-2.3594 3.6875-5.5586 3.6875-8.8945s-1.3242-6.5352-3.6875-8.8906c-4.9023-4.8867-12.836-4.8867-17.738 0z"/>
  <path d="m226.83 397.58c-3.332 0.011719-6.5195 1.3398-8.8711 3.7031l-52.75 52.75c-4.8867 4.9023-4.8867 12.836 0 17.742 2.3594 2.3594 5.5586 3.6875 8.8945 3.6875 3.3359 0 6.5352-1.3281 8.8906-3.6875l52.75-52.707c2.3594-2.3594 3.6875-5.5586 3.6875-8.8945 0-3.3359-1.3281-6.5352-3.6875-8.8906-2.3594-2.3711-5.5664-3.7031-8.9141-3.7031z"/>
 </g>
</svg>
